<svg xmlns:xlink="http://www.w3.org/1999/xlink" xmlns="http://www.w3.org/2000/svg" width="180px" height="60px" viewBox="0 0 180 60"><defs><path d="M0 60L180 60L180 0L0 0L0 60Z" id="path_1"></path><rect width="180" height="60" id="artboard_1"></rect><clipPath id="clip_1"><use xlink:href="#artboard_1" clip-rule="evenodd"></use></clipPath><clipPath id="mask_1"><use xlink:href="#path_1"></use></clipPath></defs><g id="Logo" clip-path="url(#clip_1)"><g id="Group-19" transform="matrix(1 0 0 1 0 3.5527137E-15)"><path d="M26.057 0L6.56572 21.8288L3.87612 19.3251L0 23.6461L6.53741 30L30 3.83947L26.057 0Z" transform="translate(49 0)" id="Fill-1" fill="#2F9660" fill-rule="evenodd" stroke="none"></path><g id="Group-18"><path d="M19.6588 26.7606C19.6822 24.5766 19.4142 22.4422 18.4903 20.4359C16.8273 16.8176 13.5066 16.0705 10.8339 17.0057C9.05387 17.6275 7.93482 18.9938 7.1567 20.6501C6.00121 23.1136 5.76439 25.7287 6.00121 28.4091C6.16777 30.2979 6.63881 32.0952 7.65376 33.7149C8.42668 34.948 9.45465 35.9016 10.8574 36.3796C13.9595 37.4324 17.0199 36.0635 18.4617 32.9835C19.3829 31.0111 19.6666 28.9133 19.6588 26.7606M5.47813 37.8609C5.47813 38.5976 5.49114 39.7836 5.47292 40.5204C5.4521 41.3563 5.24651 41.581 4.45797 41.5915C3.29989 41.6097 2.1392 41.6097 0.978515 41.5915C0.247231 41.5784 0.078073 41.4034 0.0130122 40.6797C-0.0078073 40.4237 0.00260243 40.1624 0.00260243 39.9038C0.00260243 27.1682 0.00260243 14.4325 0.00260243 1.69682C0.00260243 0.0248569 0.0234219 0.00395731 1.65515 0.00395731C2.68832 0.00395731 3.71888 -0.00649246 4.74944 0.00656976C5.76439 0.0222444 5.91013 0.171154 5.91273 1.21091C5.91794 5.38298 5.91273 9.55244 5.91273 13.7219L5.91273 14.7826C6.64141 14.1608 7.20614 13.5939 7.85155 13.1446C11.37 10.6941 15.5391 10.8508 18.8052 12.5385C21.5091 13.9753 23.5781 16.6531 24.593 19.7566C26.2273 24.749 26.2013 29.7545 24.1454 34.6319C22.6698 38.1378 20.2053 40.7189 16.4266 41.662C12.4058 42.6626 8.83006 41.8266 6.01162 38.5793C5.71755 38.2423 5.56921 37.8139 5.47813 37.8609" transform="translate(114.95527 17.924461)" id="Fill-2" fill="#333333" fill-rule="evenodd" stroke="none"></path><path d="M5.85857 15.5798C5.93144 17.7298 6.05636 19.8903 6.98282 21.9045C7.61261 23.2656 8.50004 24.4099 9.947 24.9402C11.7973 25.7762 14.6574 25.6351 16.5858 23.7776C17.2676 23.1193 17.8896 22.3251 18.3138 21.4787C19.8128 18.4822 20.0575 15.3003 19.4121 12.0399C19.0789 10.3654 18.3529 8.87626 17.226 7.57265C14.6886 4.63104 9.11422 4.36718 7.07131 9.03301C6.15525 11.1308 5.94445 13.3253 5.85857 15.5798M19.9872 3.6357C19.9872 3.03745 19.9794 2.4392 19.9898 1.84356C20.0028 0.754173 20.1433 0.605264 21.2155 0.594814C22.3736 0.584364 23.5343 0.579139 24.6924 0.600039C25.5278 0.615713 25.6969 0.798584 25.7073 1.65024C25.723 2.75008 25.7125 28.804 25.7125 28.804C25.7125 30.28 25.6449 30.3479 24.2031 30.3506C23.2038 30.3506 22.2045 30.3636 21.2077 30.3453C20.4556 30.3297 20.2943 30.1912 20.224 29.4493C20.1485 28.6603 20.1303 27.6885 20.0887 26.8943C20.0887 26.8943 19.7478 27.2261 19.5135 27.4716C17.7777 29.4675 15.5709 30.5282 12.9502 30.7503C7.37059 31.2205 3.36023 28.0777 1.4032 23.3126C0.0681538 20.068 -0.189487 16.677 0.114998 13.2234C0.346614 10.6214 0.992018 8.13171 2.29844 5.85105C3.9666 2.9434 6.3192 0.884795 9.67114 0.242134C13.3145 -0.458001 16.578 0.320507 19.2169 3.09754C19.4068 3.29869 19.6072 3.4894 19.7998 3.68795C19.7998 3.68795 19.9534 3.87082 19.9794 3.85514C19.9924 3.84731 19.9872 3.6357 19.9872 3.6357" transform="translate(84.231995 29.171635)" id="Fill-4" fill="#333333" fill-rule="evenodd" stroke="none"></path><path d="M19.8097 9.54707L24.1168 13.599L14.6751 23.7771C15.0993 24.5112 21.3165 35.2169 24.1454 39.9559C24.8272 41.0976 24.567 41.6984 23.1669 41.6148C21.9151 41.5391 20.6529 41.5573 19.3985 41.6148C18.6543 41.6462 18.2275 41.3797 17.8631 40.7318C15.6693 36.8158 10.6101 28.0144 10.6101 28.0144C10.6101 28.0144 7.24518 31.8051 6.45664 32.6594C6.08449 33.0617 5.91533 33.4875 5.92314 34.0466C5.94917 36.0503 5.93876 40.5803 5.91273 40.8363C5.86329 41.3275 5.58743 41.5939 5.08256 41.5939C3.66423 41.5939 2.2485 41.5965 0.830177 41.5939C0.327907 41.5913 0.0494463 41.3327 0.0130122 40.8311L0 1.54516C0 0.0586773 0.0494463 0.00904087 1.50681 0.00642843C2.63366 0.00381599 3.76312 -0.00924623 4.88998 0.0116533C5.70974 0.0299404 5.89191 0.233711 5.93095 1.06447C5.94136 1.3231 5.93355 24.1245 5.93355 24.4667L19.8097 9.54707Z" transform="translate(24.675245 17.923296)" id="Fill-6" fill="#333333" fill-rule="evenodd" stroke="none"></path><path d="M6.29132 12.4991L19.2566 12.4991C19.1265 10.5606 18.7127 8.77893 17.4584 7.33164C15.733 5.34357 13.4662 5.09016 11.085 5.65967C8.4123 6.29972 6.25488 9.45033 6.29132 12.4991M6.11695 17.7631C6.48129 20.339 7.18135 22.6379 9.30233 24.2342C10.5099 25.1407 11.9022 25.4907 13.3856 25.4751C15.3998 25.4515 17.2632 24.9186 18.8975 23.6934C19.025 23.5967 19.1656 23.5183 19.3659 23.3877C20.7791 24.4092 22.2078 25.4411 23.6964 26.52C22.148 28.0562 20.485 29.2344 18.515 29.9293C15.5143 30.9821 12.4487 31.1519 9.39602 30.2767C5.16186 29.0646 2.44752 26.1543 1.10987 22.0397C-0.482821 17.1466 -0.412556 12.2195 1.65378 7.45965C3.37138 3.49657 6.36158 0.9416 10.6738 0.217953C14.2157 -0.377684 17.552 0.197054 20.4017 2.56915C22.8168 4.57812 24.0659 7.2611 24.6281 10.3046C25.0236 12.4468 24.9898 14.6099 24.8545 16.7756C24.8024 17.5672 24.6255 17.7292 23.8604 17.7605C23.6339 17.7684 6.54115 17.7631 6.11695 17.7631" transform="translate(155.05132 29.160545)" id="Fill-8" fill="#333333" fill-rule="evenodd" stroke="none"></path><path d="M19.9926 4.36306C20.206 4.01038 19.7635 3.57149 19.6699 3.49572C15.9354 0.509702 11.6882 -0.626712 6.96737 0.332055C4.18797 0.893731 1.92645 2.68325 0.81261 5.13111C-0.361088 7.88202 -0.348076 10.6042 1.41117 13.1461C2.31682 14.4549 3.61543 15.3458 5.05198 15.9362C7.38896 16.8453 12.8046 18.7237 14.1553 19.3898C14.7304 19.6432 15.1807 20.0743 15.4097 20.6752C15.9848 22.1851 15.8209 24.5834 13.2809 25.3175C11.8495 25.7302 10.4104 25.6545 8.97384 25.4063C6.76178 25.0249 5.45275 24.4919 3.74816 23.0473C3.53996 22.8722 3.14439 22.8539 2.95441 23.0446C2.73841 23.2615 0.0969403 26.1404 0.0969403 26.1404C-0.124267 26.6028 0.164604 26.8666 0.718922 27.3604C1.14832 27.7392 2.67856 28.7946 3.35519 29.1134C6.7878 30.7226 10.3896 31.172 14.0954 30.5136C18.0355 29.8135 20.716 27.4753 21.2313 23.3398C21.5436 20.8476 21.2157 18.4885 19.4408 16.5449C18.4025 15.4059 17.1117 14.5986 15.6881 14.05C13.8872 13.3551 8.80989 11.7615 7.36294 10.9804C6.31936 10.5258 5.79367 9.72902 5.79887 8.54558C5.80148 7.29161 6.27512 6.33545 7.38116 5.76855C7.8574 5.52559 8.40651 5.36885 8.94001 5.30354C11.4852 4.99527 13.7857 5.66144 15.8521 7.1636C15.99 7.26287 16.1253 7.36475 16.2633 7.46925C16.5625 7.69653 16.9867 7.66257 17.2418 7.38565C17.2418 7.38565 19.8702 4.56683 19.9926 4.36306" transform="translate(0.0006510324 29.178373)" id="Fill-10" fill="#333333" fill-rule="evenodd" stroke="none"></path><path d="M0.00450248 20.7409C0.00450248 14.3431 0.00450248 7.94519 0.00450248 1.54731C0.00450248 0.0921814 0.0877804 0.00858321 1.52953 0.00597076C2.65638 0.00335832 3.78324 -0.0097039 4.91009 0.0138081C5.70383 0.0294828 5.86779 0.212354 5.90422 0.98825C5.91463 1.18157 5.90682 27.225 5.90682 40.0521C5.90682 41.5412 5.84957 41.5987 4.40262 41.5987C3.27576 41.5987 2.14891 41.6118 1.02205 41.5935C0.259541 41.5804 0.0565512 41.3636 0.00970735 40.6112C-0.00850969 40.3552 0.00450248 27.1075 0.00450248 20.7409" transform="translate(144.82776 17.922188)" id="Fill-12" fill="#333333" fill-rule="evenodd" stroke="none"></path><path d="M0 60L180 60L180 0L0 0L0 60Z" id="Clip-15" fill="none" fill-rule="evenodd" stroke="none"></path><g clip-path="url(#mask_1)"><path d="M0 42.6612L5.90753 42.6612L5.90753 0L0 0L0 42.6612Z" transform="translate(73.969 16.834589)" id="Fill-14" fill="#333333" fill-rule="evenodd" stroke="none"></path><path d="M0 30.7877L5.90232 30.7877L5.90232 0L0 0L0 30.7877Z" transform="translate(63.017956 28.708147)" id="Fill-16" fill="#333333" fill-rule="evenodd" stroke="none"></path><path d="M0 22.1405L5.89451 22.1405L5.89451 0L0 0L0 22.1405Z" transform="translate(52.069515 37.355335)" id="Fill-17" fill="#333333" fill-rule="evenodd" stroke="none"></path></g></g></g></g></svg>