<svg width="159" height="25" viewBox="0 0 159 25" fill="none" xmlns="http://www.w3.org/2000/svg">
<path d="M14.1505 2.23292L16.2799 6.4919C16.5668 7.08091 17.3371 7.63972 17.9865 7.76054L21.8379 8.39486C24.2996 8.80263 24.8735 10.5848 23.1065 12.3669L20.1009 15.3723C19.6025 15.8707 19.3157 16.8524 19.4818 17.5622L20.3425 21.2775C21.0222 24.2075 19.4516 25.3553 16.869 23.8148L13.2593 21.6702C12.6099 21.2775 11.5227 21.2775 10.8732 21.6702L7.26352 23.8148C4.68101 25.3402 3.11033 24.2075 3.78996 21.2775L4.65083 17.5622C4.81696 16.8675 4.52999 15.8858 4.0316 15.3723L1.02616 12.3669C-0.740861 10.5999 -0.166956 8.81773 2.2948 8.39486L6.14591 7.76054C6.79533 7.65482 7.56573 7.08091 7.85268 6.4919L9.98217 2.23292C11.1149 -0.0778032 12.9876 -0.0778032 14.1505 2.23292Z" fill="#FFCC0A"/>
<path d="M46.2833 2.23292L48.4127 6.4919C48.6996 7.08091 49.4699 7.63972 50.1193 7.76054L53.9707 8.39486C56.4324 8.80263 57.0063 10.5848 55.2393 12.3669L52.2337 15.3723C51.7353 15.8707 51.4485 16.8524 51.6146 17.5622L52.4753 21.2775C53.155 24.2075 51.5844 25.3553 49.0019 23.8148L45.3921 21.6702C44.7427 21.2775 43.6555 21.2775 43.006 21.6702L39.3963 23.8148C36.8138 25.3402 35.2431 24.2075 35.9228 21.2775L36.7836 17.5622C36.9498 16.8675 36.6628 15.8858 36.1644 15.3723L33.159 12.3669C31.392 10.5999 31.9659 8.81773 34.4276 8.39486L38.2787 7.76054C38.9281 7.65482 39.6985 7.08091 39.9855 6.4919L42.115 2.23292C43.2477 -0.0778032 45.1204 -0.0778032 46.2833 2.23292Z" fill="#FFCC0A"/>
<path d="M78.4162 2.23292L80.5455 6.4919C80.8325 7.08091 81.6027 7.63972 82.2521 7.76054L86.1035 8.39486C88.5652 8.80263 89.1391 10.5848 87.3721 12.3669L84.3665 15.3723C83.8681 15.8707 83.5813 16.8524 83.7474 17.5622L84.6082 21.2775C85.2878 24.2075 83.7172 25.3553 81.1347 23.8148L77.5249 21.6702C76.8755 21.2775 75.7883 21.2775 75.1389 21.6702L71.5291 23.8148C68.9466 25.3402 67.376 24.2075 68.0556 21.2775L68.9165 17.5622C69.0826 16.8675 68.7956 15.8858 68.2972 15.3723L65.2918 12.3669C63.5248 10.5999 64.0987 8.81773 66.5604 8.39486L70.4115 7.76054C71.061 7.65482 71.8314 7.08091 72.1183 6.4919L74.2478 2.23292C75.3805 -0.0778032 77.2532 -0.0778032 78.4162 2.23292Z" fill="#FFCC0A"/>
<path d="M110.549 2.23292L112.678 6.4919C112.965 7.08091 113.736 7.63972 114.385 7.76054L118.236 8.39486C120.698 8.80263 121.272 10.5848 119.505 12.3669L116.499 15.3723C116.001 15.8707 115.714 16.8524 115.88 17.5622L116.741 21.2775C117.421 24.2075 115.85 25.3553 113.267 23.8148L109.658 21.6702C109.008 21.2775 107.921 21.2775 107.272 21.6702L103.662 23.8148C101.079 25.3402 99.5088 24.2075 100.188 21.2775L101.049 17.5622C101.215 16.8675 100.928 15.8858 100.43 15.3723L97.4246 12.3669C95.6576 10.5999 96.2315 8.81773 98.6932 8.39486L102.544 7.76054C103.194 7.65482 103.964 7.08091 104.251 6.4919L106.381 2.23292C107.513 -0.0778032 109.386 -0.0778032 110.549 2.23292Z" fill="#FFCC0A"/>
<path d="M146.425 8.2521L146.425 8.25221L146.436 8.25389L150.286 8.88813C151.431 9.07772 151.964 9.55586 152.112 10.018C152.26 10.481 152.104 11.1847 151.282 12.0142C151.282 12.0144 151.282 12.0146 151.282 12.0148L148.278 15.0188L148.631 15.3723L148.278 15.0188C147.953 15.3431 147.722 15.7957 147.592 16.2507C147.462 16.7062 147.418 17.218 147.525 17.6762L148.386 21.3904L148.386 21.3905C148.715 22.8113 148.437 23.5467 148.064 23.8188C147.692 24.0908 146.908 24.1323 145.655 23.3854L145.655 23.3849L142.048 21.2423C142.048 21.242 142.047 21.2416 142.047 21.2413C141.625 20.9867 141.095 20.8757 140.597 20.8757C140.098 20.8757 139.568 20.9867 139.146 21.2413C139.146 21.2417 139.145 21.242 139.145 21.2423L135.54 23.3843C134.287 24.1242 133.501 24.0842 133.128 23.8126C132.756 23.5423 132.478 22.8115 132.807 21.3905L132.807 21.3904L133.667 17.6785C133.668 17.6779 133.668 17.6773 133.668 17.6767C133.776 17.2241 133.731 16.7154 133.601 16.262C133.472 15.8072 133.241 15.3539 132.921 15.0241L132.921 15.0241L132.915 15.0188L129.91 12.0133C129.088 11.1918 128.933 10.492 129.081 10.0293C129.23 9.56591 129.764 9.08481 130.908 8.88792C130.909 8.88783 130.909 8.88773 130.91 8.88764L134.757 8.25404C134.757 8.25402 134.757 8.254 134.757 8.25398C135.182 8.18474 135.61 7.97199 135.964 7.70864C136.317 7.44581 136.643 7.09811 136.831 6.71338L138.96 2.45653L138.96 2.45654L138.961 2.453C139.493 1.36948 140.111 0.999878 140.585 0.999878C141.062 0.999878 141.688 1.37219 142.234 2.45724C142.234 2.45739 142.234 2.45754 142.234 2.4577L144.362 6.71338C144.551 7.0999 144.878 7.44401 145.231 7.70413C145.585 7.96554 146.009 8.17461 146.425 8.2521Z" stroke="#FFCC0A"/>
<path fill-rule="evenodd" clip-rule="evenodd" d="M144.81 6.4919L142.681 2.23292C141.518 -0.0778033 139.645 -0.0778033 138.512 2.23292L136.383 6.4919C136.096 7.08091 135.326 7.65482 134.676 7.76054L130.825 8.39486C128.363 8.81773 127.789 10.5999 129.556 12.3669L132.562 15.3723C133.06 15.8858 133.347 16.8675 133.181 17.5622L132.32 21.2775C131.641 24.2075 133.211 25.3402 135.794 23.8148L139.404 21.6702C140.053 21.2775 141.14 21.2775 141.79 21.6702L145 23.5776V6.79363C144.924 6.69538 144.86 6.5941 144.81 6.4919Z" fill="#FFCC0A"/>
</svg>
