<svg width="37" height="36" viewBox="0 0 37 36" fill="none" xmlns="http://www.w3.org/2000/svg">
<g opacity="0.1">
<path fill-rule="evenodd" clip-rule="evenodd" d="M24.9746 35.3127C28.2752 37.0396 31.9058 35.3127 33.7211 32.3769C37.5167 30.1319 37.5167 24.2605 34.7112 20.6339C33.226 18.5617 31.4107 18.7343 29.7604 19.5978C29.5954 19.5978 29.4304 19.5978 29.2653 19.5978C28.9353 13.7263 31.7407 8.89098 34.5462 3.71025C34.7112 3.88294 35.2063 4.05563 35.3713 3.71025C35.7014 3.01949 36.1965 2.32873 36.3615 1.46527C36.3615 1.29258 36.3615 0.947201 36.1965 0.77451C36.1965 0.256437 35.5364 -0.088944 35.0413 0.429128C34.8762 0.601819 34.8762 0.77451 34.7112 0.947201C31.5757 3.36487 28.7702 6.47331 26.6249 9.92712C23.9845 12.3448 22.1692 15.4532 21.6741 19.0797C20.8489 20.9793 20.5189 23.0516 20.3539 24.7785C19.8588 29.2685 21.014 33.2404 24.9746 35.3127ZM34.5462 27.1962C34.5462 27.3689 33.8861 27.7143 33.7211 27.887C33.7211 27.1962 33.226 26.3327 32.8959 25.642C32.8959 25.2966 33.391 24.7785 33.391 24.4331C33.8861 25.2966 34.5462 26.1601 34.5462 27.1962C34.5462 27.0235 34.5462 27.0235 34.5462 27.1962ZM33.391 21.152C35.0413 22.5335 35.5364 25.4693 35.3713 27.5416C35.3713 28.0597 35.2063 28.5777 35.0413 29.0958C35.0413 28.9231 35.0413 28.9231 35.0413 28.7504C35.5364 27.3689 35.5364 25.9874 35.0413 24.6058C35.0413 24.4331 35.0413 24.2605 35.0413 24.0878C35.0413 23.7424 34.8762 23.397 34.7112 23.0516C34.5462 22.5335 34.3812 22.1882 34.0511 21.6701C33.7211 21.152 32.8959 20.8066 32.2358 20.6339C31.9058 20.8066 31.7407 20.6339 31.5757 20.6339C32.2358 20.4613 32.7309 20.6339 33.391 21.152ZM27.45 33.4131C28.4402 33.5858 29.5954 33.5858 30.4205 33.2404C30.5855 33.2404 30.9156 33.2404 31.0806 33.2404H31.2457C30.4205 33.9311 29.4304 34.4492 28.2752 34.4492C28.4402 34.2765 28.4402 34.1038 28.1101 34.1038C27.45 34.1038 26.7899 33.9311 26.2948 33.7584C26.9549 33.5858 27.285 33.4131 27.45 33.4131ZM25.9648 18.7343C25.9648 19.2524 25.9648 20.1159 26.1298 20.8066C26.1298 20.8066 25.9648 20.8066 25.9648 20.9793C25.9648 20.2886 25.9648 19.4251 25.9648 18.7343ZM22.0041 28.2323C22.1692 28.405 22.4992 28.2323 22.4992 27.887C22.1692 26.5054 22.1692 25.1239 22.4992 23.7424C22.4992 24.0878 22.4992 24.4331 22.4992 24.7785C22.4992 24.9512 22.4992 24.9512 22.4992 25.1239C22.3342 25.8147 22.3342 26.3327 22.4992 27.0235C22.6642 28.9231 22.9943 30.9954 23.8194 32.3769C22.4992 31.3408 22.0041 29.7866 22.0041 28.2323C22.0041 28.0596 22.0041 28.2323 22.0041 28.2323Z" fill="black"/>
<path fill-rule="evenodd" clip-rule="evenodd" d="M5.50142 35.1398C8.80196 36.8667 12.4326 35.1398 14.2479 32.2041C18.0435 29.9591 18.0435 24.0876 15.238 20.4611C13.7528 18.3888 11.9375 18.5615 10.2872 19.425C10.1222 19.425 9.95715 19.425 9.79212 19.425C9.46207 13.5535 12.2675 8.71812 15.073 3.5374C15.238 3.71009 15.7331 3.88278 15.8981 3.5374C16.2282 2.84664 16.7233 2.15588 16.8883 1.29242C16.8883 1.11973 16.8883 0.774349 16.7233 0.601658C16.7233 0.0835859 16.0631 -0.261796 15.5681 0.256277C15.403 0.428967 15.403 0.601658 15.238 0.774349C12.1025 3.19202 9.29704 6.30045 7.15169 9.92696C4.51125 12.3446 2.69596 15.4531 2.20087 19.0796C1.37574 20.9792 1.04569 23.0515 0.880659 24.7784C0.22055 29.0956 1.37574 33.0675 5.50142 35.1398ZM14.7429 26.8507C14.7429 27.0233 14.2479 27.3687 14.0828 27.5414C14.0828 26.8507 13.5877 25.9872 13.2577 25.2964C13.2577 24.9511 13.5877 24.433 13.5877 24.0876C14.0828 24.9511 14.7429 25.9872 14.7429 26.8507ZM13.7528 20.9792C15.403 22.3607 15.8981 25.2964 15.7331 27.3687C15.7331 27.8868 15.5681 28.4049 15.403 28.9229C15.403 28.7503 15.403 28.7503 15.403 28.5776C15.8981 27.196 15.8981 25.8145 15.403 24.433C15.403 24.2603 15.403 24.0876 15.403 23.9149C15.403 23.5695 15.238 23.2241 15.073 22.8788C14.908 22.3607 14.7429 22.0153 14.4129 21.4972C14.0828 20.9792 13.2577 20.6338 12.5976 20.4611C12.4326 20.2884 12.2675 20.2884 12.1025 20.1157C12.5976 20.2884 13.2577 20.4611 13.7528 20.9792ZM7.97682 33.0675C8.96698 33.2402 10.1222 33.2402 10.9473 32.8948C11.1123 32.8948 11.4424 32.8948 11.6074 32.8948H11.7724C10.9473 33.5856 9.95715 34.1037 8.80196 34.1037C8.96698 33.931 8.96698 33.7583 8.63693 33.7583C7.97682 33.7583 7.31671 33.5856 6.82163 33.4129C7.31671 33.2402 7.64677 33.2402 7.97682 33.0675ZM6.49158 18.5615C6.49158 18.5615 6.49158 18.3888 6.49158 18.5615C6.49158 19.0796 6.49158 19.943 6.65661 20.6338C6.65661 20.6338 6.49158 20.6338 6.49158 20.8065C6.32655 19.943 6.32655 19.2523 6.49158 18.5615ZM2.3659 28.0595C2.53093 28.2322 2.86098 28.0595 2.86098 27.7141C2.53093 26.3326 2.53093 24.9511 2.86098 23.5695C2.86098 23.9149 2.86098 24.2603 2.86098 24.6057C2.86098 24.7784 2.86098 24.7784 2.86098 24.9511C2.69596 25.6418 2.69596 26.1599 2.86098 26.8507C3.02601 28.7503 3.35606 30.8225 4.1812 32.2041C2.86098 30.9952 2.3659 29.441 2.3659 28.0595C2.3659 27.8868 2.3659 27.8868 2.3659 28.0595Z" fill="black"/>
</g>
</svg>
